<svg xmlns="http://www.w3.org/2000/svg" width="143" height="39" fill="none" viewBox="0 0 143 39">
    <g clip-path="url(#prefix__clip0)">
        <path fill="#98B980" fill-rule="evenodd" d="M120.067 27.39c5.627.013 10.236-4.553 10.25-10.159.013-5.606-4.57-10.199-10.203-10.212-5.634-.013-10.236 4.553-10.25 10.159-.013 5.606 4.57 10.199 10.203 10.212z" clip-rule="evenodd"/>
        <path fill="#fff" fill-rule="evenodd" d="M119.036 27.05c4.975.013 9.046-4.053 9.059-9.052.013-5-4.037-9.08-9.012-9.093-4.982-.013-9.046 4.053-9.059 9.053-.013 4.993 4.031 9.079 9.012 9.092z" clip-rule="evenodd"/>
        <path fill="#759C7B" fill-rule="evenodd" d="M117.985 13.332c.546 0 .978-.44.985-.98 0-.54-.433-.987-.978-.987-.532 0-.978.44-.978.98s.439.987.971.987zM123.492 14.072c.586 0 1.078-.474 1.078-1.067s-.486-1.073-1.071-1.08c-.592 0-1.071.48-1.071 1.073-.006.587.473 1.074 1.064 1.074zM124.543 18.451c.586 0 1.071-.48 1.071-1.073 0-.587-.479-1.073-1.071-1.073-.591 0-1.07.48-1.07 1.073 0 .586.479 1.066 1.07 1.073zM113.509 25.044s-.665-4.793.14-7.4c.798-2.612 1.111-3.146 1.45-3.58.332-.439 1.204-.866 1.729-.172.519.7.067 1.073-.306 1.606-.366.527-1.563 2.32-2.048 3.98-.486 1.66-.552 2.08-.672 3.272-.12 1.194-.293 2.294-.293 2.294zM114.201 25.11s1.104-5.586 3.019-8.105c1.923-2.52 2.421-2.86 2.953-3.187.533-.326 1.617-.426 1.889.514.266.94-.359 1.16-.964 1.573-.599.413-2.574 1.813-3.738 3.373-1.164 1.553-1.403 1.966-2.009 3.173-.598 1.206-1.15 2.66-1.15 2.66z" clip-rule="evenodd"/>
        <path fill="#759C7B" fill-rule="evenodd" d="M115.192 25.384s1.576-3.953 3.319-5.6c1.749-1.646 2.208-1.913 2.654-2.106.452-.187 1.303-.14 1.396.62.1.76-.412.853-.924 1.093-.512.247-2.208 1.093-3.299 2.153-1.091 1.053-1.217 1.267-1.929 2.206l-1.217 1.634z" clip-rule="evenodd"/>
        <path fill="#160609" d="M16.642 27.55h-.533l-2.387-5.686h.95l1.71 4.233 1.716-4.226h.951l-2.407 5.679zm3.664.013h-.904l.013-5.679h.905l-.014 5.68zm3.293-2.86l3.857.007c-.046.887-.372 1.607-.957 2.153-.592.547-1.33.82-2.235.82-.466 0-.898-.086-1.284-.253-.392-.167-.752-.407-1.057-.733-.273-.273-.466-.58-.606-.913-.133-.347-.2-.707-.2-1.1 0-.394.087-.774.247-1.134.166-.353.406-.68.732-.96.305-.28.638-.48 1.01-.62.373-.133.785-.2 1.244-.2.625 0 1.184.14 1.656.414.473.267.832.653 1.078 1.146h-1.117c-.207-.24-.453-.42-.732-.546-.28-.127-.599-.187-.958-.187-.293 0-.565.047-.831.147-.266.1-.5.247-.705.44-.22.206-.38.433-.506.7-.12.266-.18.533-.18.806 0 .294.054.58.16.84.113.26.266.493.472.687.207.207.453.36.732.473.28.113.565.167.851.167.486 0 .898-.107 1.258-.34.365-.233.665-.567.89-1.02l-2.82-.007v-.786zm5.587 2.88h-.905l.013-5.679h.905l-.013 5.68zm4.03.007l-2.946-.007.013-5.679h.905l-.014 4.893 2.042.006v.787zm3.825-2.44l-.872-2.16-.897 2.154 1.769.006zm-2.095.794l-.706 1.653h-.95l2.447-5.673h.878l2.421 5.686h-.991l-.678-1.66-2.421-.006zm5.26.906h1.098c.692 0 1.244-.18 1.65-.547.405-.366.605-.866.605-1.5 0-.66-.206-1.166-.632-1.54-.426-.366-1.024-.56-1.776-.56h-.931l-.013 4.147zm.872.76l-1.75-.007.014-5.679 2.002.007c.938 0 1.69.266 2.261.793.572.533.865 1.226.858 2.073 0 .487-.106.927-.325 1.326-.22.394-.526.727-.932.987-.28.18-.565.313-.878.387-.306.08-.718.113-1.25.113zm4.882-2.853c0 .293.046.58.16.84.1.26.266.493.465.686.213.207.459.36.732.474.286.113.565.166.858.166.638 0 1.184-.2 1.616-.62.439-.413.652-.933.658-1.553 0-.266-.053-.513-.16-.753-.099-.24-.245-.46-.445-.66-.24-.233-.485-.406-.765-.513-.272-.113-.565-.167-.898-.167-.292 0-.572.047-.831.147-.273.1-.499.247-.705.44-.22.207-.386.433-.499.7-.133.266-.186.533-.186.813zm-.938-.013c0-.394.08-.774.246-1.134.166-.353.406-.68.725-.96.3-.273.639-.473 1.011-.613.373-.14.765-.213 1.184-.213.439 0 .845.073 1.217.213.373.134.712.347 1.018.62.312.287.558.607.712.953.152.354.239.734.239 1.134 0 .4-.073.773-.206 1.113-.133.34-.353.646-.619.906-.32.32-.685.554-1.084.72-.392.16-.825.24-1.29.24-.466 0-.898-.086-1.29-.253-.4-.167-.752-.407-1.065-.733-.26-.273-.459-.58-.598-.913-.133-.327-.2-.687-.2-1.08z"/>
        <path fill="#608F6B" d="M55.185 25.424h1.044c.02.393.14.713.373.946.226.24.532.353.884.36.4 0 .725-.113.965-.353.246-.233.366-.553.366-.947 0-.346-.087-.613-.26-.8-.173-.186-.552-.366-1.11-.533-.034-.007-.08-.013-.147-.033-.685-.174-1.17-.454-1.47-.847-.133-.173-.24-.36-.306-.553-.066-.193-.1-.4-.1-.627 0-.646.207-1.18.62-1.58.411-.4.95-.606 1.615-.6.612 0 1.111.187 1.483.547.38.36.592.853.626 1.487h-1.091c-.013-.307-.12-.554-.313-.74-.193-.187-.445-.287-.745-.287-.319 0-.578.107-.778.307-.213.206-.306.473-.306.806 0 .114.027.227.06.327.04.1.093.193.166.28.16.18.506.333 1.025.466.24.06.419.114.552.154.532.193.938.466 1.204.826.279.36.412.794.405 1.294 0 .733-.22 1.333-.672 1.78-.445.446-1.03.673-1.755.673-.692 0-1.244-.214-1.677-.654-.432-.426-.651-1-.658-1.7zM66 27.65h-1.051v-.647c-.22.26-.466.454-.732.587-.272.127-.578.187-.91.187-.772 0-1.358-.227-1.783-.68-.42-.454-.626-1.087-.619-1.907l.007-3.32h1.09l-.006 3.02c0 .62.12 1.093.346 1.407.233.306.578.466 1.037.466.286 0 .552-.066.772-.193.22-.127.406-.306.532-.547.086-.146.14-.32.18-.526.04-.2.06-.533.06-.98l.006-2.646h1.084L66 27.65zm2.361-2.913c0 .567.2 1.053.605 1.46.4.4.878.6 1.437.6.579 0 1.064-.187 1.476-.573.413-.387.612-.854.612-1.407 0-.587-.2-1.073-.598-1.466-.406-.394-.905-.594-1.49-.594-.546 0-1.018.2-1.423.593-.413.387-.612.854-.619 1.387zm.033 2.22l-.006 2.56h-1.105l.02-7.633h1.111v.713c.28-.273.599-.48.931-.62.346-.14.719-.213 1.111-.213.911 0 1.676.293 2.275.867.605.58.904 1.3.898 2.166 0 .407-.073.787-.226 1.153-.153.36-.373.68-.652.967-.306.306-.639.52-1.005.666-.359.147-.778.22-1.243.22-.406 0-.792-.073-1.144-.213-.346-.14-.672-.347-.965-.633zm10.968-2.713c-.14-.474-.372-.847-.705-1.1-.332-.267-.738-.4-1.204-.4-.479 0-.898.133-1.244.4-.352.267-.605.626-.731 1.086l3.884.014zm-3.917.926c.093.48.319.873.685 1.173.365.3.804.454 1.303.454.36 0 .692-.08.985-.247.299-.16.532-.393.711-.693h1.237c-.279.633-.671 1.12-1.177 1.46-.505.333-1.09.506-1.762.506-.453 0-.865-.08-1.23-.233-.38-.147-.72-.373-1.012-.68-.286-.28-.505-.607-.665-.986-.16-.38-.24-.76-.24-1.154 0-.406.08-.786.227-1.14.14-.353.359-.673.638-.966.313-.313.652-.553 1.031-.707.38-.16.792-.24 1.244-.24.532 0 1.03.127 1.49.36.452.24.831.567 1.13.993.173.26.306.554.393.867.086.313.12.673.12 1.073v.16h-5.108zm7.163 2.52h-1.091l.013-5.766h1.025v.667c.18-.254.385-.44.625-.567.233-.12.505-.187.818-.187v1.087c-.492.033-.845.166-1.058.407-.22.246-.325.626-.325 1.16l-.007 3.199zm1.756-1.867h1.024c0 .307.093.554.266.747.18.2.406.3.678.3.253 0 .466-.073.626-.22.166-.147.246-.333.246-.566 0-.2-.06-.374-.173-.514-.12-.14-.306-.26-.566-.36-.086-.033-.212-.08-.379-.14-.432-.153-.705-.273-.824-.366-.213-.16-.373-.347-.48-.56-.099-.207-.152-.454-.152-.72 0-.467.173-.867.525-1.193.346-.327.758-.494 1.264-.487.525 0 .938.147 1.237.433.313.287.472.694.499 1.213h-1.051c-.02-.213-.093-.38-.22-.5-.133-.12-.305-.18-.518-.18-.193 0-.36.067-.492.194-.133.127-.193.287-.2.473 0 .32.293.587.878.793l.392.14c.466.174.805.407.991.667.2.267.293.62.293 1.06 0 .52-.186.946-.552 1.293-.373.34-.838.507-1.39.507-.566 0-1.024-.18-1.37-.54-.333-.354-.519-.847-.552-1.474zm5.653-1.04c0 .58.193 1.074.606 1.467.405.393.904.593 1.496.593.539 0 1.004-.193 1.423-.586.406-.4.612-.86.612-1.393 0-.567-.2-1.054-.605-1.46-.406-.4-.891-.607-1.443-.607-.579 0-1.064.194-1.477.573-.406.394-.605.86-.612 1.414zm4.084 2.934v-.707c-.28.273-.599.48-.938.62-.346.14-.712.213-1.104.207-.918 0-1.67-.294-2.275-.874-.598-.58-.898-1.306-.898-2.173 0-.4.08-.786.227-1.153.153-.367.365-.686.645-.96.306-.306.645-.526 1.004-.673.366-.147.778-.213 1.25-.213.42 0 .799.073 1.151.213.353.133.665.353.958.64v-.7h1.104l-.013 5.766-1.111.007zm2.381.006l.02-7.632h1.084l-.02 7.632h-1.084zm7.456.014h-1.051v-.647c-.213.26-.459.453-.731.587-.273.126-.572.186-.912.186-.758 0-1.356-.226-1.775-.68-.426-.453-.632-1.086-.626-1.906l.007-3.32h1.097l-.006 3.02c0 .62.119 1.093.346 1.407.226.306.578.466 1.037.466.293 0 .546-.067.772-.193.226-.127.405-.307.538-.547.08-.146.14-.32.18-.526.04-.2.053-.534.053-.98l.007-2.647h1.084l-.02 5.78zm2.162-2.913c0 .58.199 1.073.605 1.466.406.393.905.593 1.496.593.533 0 1.011-.193 1.417-.586.413-.4.619-.86.619-1.393 0-.567-.2-1.054-.612-1.46-.406-.4-.885-.607-1.443-.607-.572 0-1.071.194-1.477.573-.399.387-.605.86-.605 1.414zm4.077 2.926v-.707c-.279.274-.592.48-.938.62s-.712.214-1.104.207c-.911 0-1.669-.293-2.275-.873-.598-.58-.904-1.307-.898-2.173 0-.4.074-.787.226-1.154.147-.366.366-.686.646-.96.306-.306.645-.526 1.011-.673.359-.146.771-.213 1.243-.213.406 0 .792.073 1.144.213.353.134.672.354.971.64l.007-2.56h1.091l-.02 7.633h-1.104z"/>
    </g>
    <defs>
        <clipPath id="prefix__clip0">
            <path fill="#fff" d="M0 0H143V38.662H0z"/>
        </clipPath>
    </defs>
</svg>
